# xmcd
#
# Track frame offsets: 
#        150
#        13142
#        31064
#        47266
#        61175
#        75356
#        95865
#        109472
#        137452
#        171572
#        186849
#        206893
#        223981
#        243110
#
# Disc length: 3605 seconds
#
# Revision: 1
# Processed by: cddbd v1.5.2PL0 Copyright (c) Steve Scherf et al.
# Submitted via: ExactAudioCopy v1.0b4
#
DISCID=c30e130e
DTITLE=Billy Boy Arnold - The Blues Soul Of Billy Boy Arnold
DYEAR=2014
DGENRE=Blues
TTITLE0=Coal Man
TTITLE1=I'd Rather Drink Muddy Water
TTITLE2=You Give Me Nothing To Go On
TTITLE3=99 Lbs.
TTITLE4=Mother's Prayer
TTITLE5=St. James Infirmary 
TTITLE6=Don't Set Me Free 
TTITLE7=What's On The Menu Mama
TTITLE8=Worried Dream
TTITLE9=Nadine (Is It You?)
TTITLE10=Work Song
TTITLE11=Dance For Me Baby
TTITLE12=Ain't That Just Like A Woman
TTITLE13=Keep On Rubbing
EXTD=
EXTT0=
EXTT1=
EXTT2=
EXTT3=
EXTT4=
EXTT5=
EXTT6=
EXTT7=
EXTT8=
EXTT9=
EXTT10=
EXTT11=
EXTT12=
EXTT13=
PLAYORDER=
